<svg viewBox="0 0 800 500" xmlns="http://www.w3.org/2000/svg" font-family="IBM Plex Mono, monospace">
  <rect width="800" height="500" fill="#FCFBF8"/>
  <text x="24" y="40" fill="#12151A" font-size="14" font-weight="700">Division Scorecard — Quarterly Review</text>
  <g>
    <!-- bar comparison -->
    <rect x="24" y="64" width="380" height="300" rx="6" fill="#FFFFFF" stroke="#E5E1D8"/>
    <text x="40" y="90" fill="#6B7280" font-size="11" letter-spacing="1">SCHEDULE PERFORMANCE INDEX</text>
    <g>
      <rect x="56" y="110" width="40" height="220" fill="#E5E1D8"/>
      <rect x="56" y="180" width="40" height="150" fill="#0E7C86"/>
      <rect x="128" y="110" width="40" height="220" fill="#E5E1D8"/>
      <rect x="128" y="150" width="40" height="180" fill="#0E7C86"/>
      <rect x="200" y="110" width="40" height="220" fill="#E5E1D8"/>
      <rect x="200" y="205" width="40" height="125" fill="#D98E2B"/>
      <rect x="272" y="110" width="40" height="220" fill="#E5E1D8"/>
      <rect x="272" y="165" width="40" height="165" fill="#0E7C86"/>
      <line x1="40" y1="330" x2="330" y2="330" stroke="#12151A" stroke-width="1.5"/>
    </g>
    <text x="56" y="348" fill="#6B7280" font-size="10">OPS</text>
    <text x="128" y="348" fill="#6B7280" font-size="10">TECH</text>
    <text x="200" y="348" fill="#6B7280" font-size="10">INFRA</text>
    <text x="272" y="348" fill="#6B7280" font-size="10">RETAIL</text>
  </g>
  <g>
    <rect x="420" y="64" width="356" height="140" rx="6" fill="#FFFFFF" stroke="#E5E1D8"/>
    <text x="436" y="90" fill="#6B7280" font-size="11" letter-spacing="1">RISK EXPOSURE BY DIVISION</text>
    <circle cx="470" cy="150" r="34" fill="none" stroke="#E5E1D8" stroke-width="12"/>
    <circle cx="470" cy="150" r="34" fill="none" stroke="#D98E2B" stroke-width="12" stroke-dasharray="60 214" stroke-linecap="round" transform="rotate(-90 470 150)"/>
    <text x="530" y="140" fill="#12151A" font-size="13" font-weight="700">3 High</text>
    <text x="530" y="160" fill="#6B7280" font-size="12">11 Medium</text>
    <text x="530" y="180" fill="#6B7280" font-size="12">33 Low</text>
  </g>
  <g>
    <rect x="420" y="220" width="356" height="144" rx="6" fill="#FFFFFF" stroke="#E5E1D8"/>
    <text x="436" y="246" fill="#6B7280" font-size="11" letter-spacing="1">EXECUTIVE ACTION ITEMS</text>
    <line x1="436" y1="266" x2="760" y2="266" stroke="#E5E1D8"/>
    <text x="436" y="288" fill="#12151A" font-size="12">Re-baseline Infra program timeline</text>
    <line x1="436" y1="300" x2="760" y2="300" stroke="#E5E1D8"/>
    <text x="436" y="322" fill="#12151A" font-size="12">Approve Q3 resourcing request — Tech</text>
  </g>
</svg>
